<svg width="126" height="126" viewBox="0 0 126 126" fill="none" xmlns="http://www.w3.org/2000/svg">
<path d="M0 31.5C0 27.3228 1.65937 23.3168 4.61307 20.3631C7.56677 17.4094 11.5728 15.75 15.75 15.75H110.25C114.427 15.75 118.433 17.4094 121.387 20.3631C124.341 23.3168 126 27.3228 126 31.5V94.5C126 98.6772 124.341 102.683 121.387 105.637C118.433 108.591 114.427 110.25 110.25 110.25H15.75C11.5728 110.25 7.56677 108.591 4.61307 105.637C1.65937 102.683 0 98.6772 0 94.5V31.5ZM15.75 23.625C13.6614 23.625 11.6584 24.4547 10.1815 25.9315C8.70468 27.4084 7.875 29.4114 7.875 31.5V39.375H118.125V31.5C118.125 29.4114 117.295 27.4084 115.818 25.9315C114.342 24.4547 112.339 23.625 110.25 23.625H15.75ZM118.125 55.125H7.875V94.5C7.875 96.5886 8.70468 98.5916 10.1815 100.068C11.6584 101.545 13.6614 102.375 15.75 102.375H110.25C112.339 102.375 114.342 101.545 115.818 100.068C117.295 98.5916 118.125 96.5886 118.125 94.5V55.125Z" fill="black"/>
<path d="M15.75 78.75C15.75 76.6614 16.5797 74.6584 18.0565 73.1815C19.5334 71.7047 21.5364 70.875 23.625 70.875H31.5C33.5886 70.875 35.5916 71.7047 37.0685 73.1815C38.5453 74.6584 39.375 76.6614 39.375 78.75V86.625C39.375 88.7136 38.5453 90.7166 37.0685 92.1935C35.5916 93.6703 33.5886 94.5 31.5 94.5H23.625C21.5364 94.5 19.5334 93.6703 18.0565 92.1935C16.5797 90.7166 15.75 88.7136 15.75 86.625V78.75Z" fill="black"/>
</svg>
